<?xml version="1.0" encoding="UTF-8" standalone="no"?><!DOCTYPE svg PUBLIC "-//W3C//DTD SVG 1.1//EN" "http://www.w3.org/Graphics/SVG/1.1/DTD/svg11.dtd"><svg width="100%" height="100%" viewBox="0 0 55 29" version="1.1" xmlns="http://www.w3.org/2000/svg" xmlns:xlink="http://www.w3.org/1999/xlink" xml:space="preserve" style="fill-rule:evenodd;clip-rule:evenodd;stroke-linejoin:round;stroke-miterlimit:1.41421;"><g><g><path d="M12.455,6.731c3.387,-2.147 7.181,-0.744 7.181,-0.744c0,0 2.105,-5.987 8.836,-5.987c6.73,0 8.419,6.525 8.419,6.525c0,0 4.333,-2.23 8.253,0.743c3.92,2.974 2.432,7.31 2.432,7.31c0,0 7.16,0.644 7.16,6.878c0,4.073 -4.164,7.105 -8.424,7.105c-4.257,0 -34.759,0.102 -38.968,0.102c-2.953,0 -7.344,-2.574 -7.344,-8.595c0,-8.094 9.449,-8.011 9.449,-8.011c0,0 -0.371,-3.181 3.008,-5.329l-0.002,0.003Z" style="fill:#fff;"/></g><path d="M12.462,6.824c3.386,-2.148 7.181,-0.744 7.181,-0.744c0,0 2.105,-5.799 8.835,-5.799l0.069,-0.184l0,28.51c-9.229,0.028 -18.954,0.056 -21.197,0.056c-2.952,0 -7.35,-2.48 -7.35,-8.501c0,-8.094 9.453,-8.011 9.453,-8.011c0,0 -0.37,-3.181 3.01,-5.327l-0.001,0Z" style="fill:#e2ecef;"/></g></svg>