<?xml version="1.0" encoding="UTF-8" standalone="no"?><!DOCTYPE svg PUBLIC "-//W3C//DTD SVG 1.1//EN" "http://www.w3.org/Graphics/SVG/1.1/DTD/svg11.dtd"><svg width="100%" height="100%" viewBox="0 0 55 255" version="1.1" xmlns="http://www.w3.org/2000/svg" xmlns:xlink="http://www.w3.org/1999/xlink" xml:space="preserve" style="fill-rule:evenodd;clip-rule:evenodd;stroke-linejoin:round;stroke-miterlimit:1.41421;"><g><path d="M53.195,236.139l-0.035,0l0,-0.536l0.035,0.536Z" style="fill:#ca0000;"/><path d="M4.536,186.206l0.039,-0.586l0,0.586l45.314,0l-22.677,0l0,49.933l-0.07,0l0,-49.933l-22.606,0Z" style="fill:#ca0000;"/><path d="M27.142,151.967l0,0.093l-20.345,0l0.006,-0.093l20.339,0Z" style="fill:#ca0000;"/><path d="M47.621,151.967l-0.054,0l0,-0.813l0.054,0.813Z" style="fill:#ca0000;"/><path d="M42.585,75.92l-15.373,0l15.373,0Z" style="fill:#ca0000;"/><path d="M27.212,75.92l-15.373,0l1.767,-26.687l13.606,0l0,26.687Z" style="fill:#ca0000;"/><path d="M27.212,49.233l13.606,0l1.767,26.687l-15.373,0l0,-26.687Z" style="fill:#e32525;"/><rect x="27.142" y="35.086" width="0.07" height="4.948" style="fill:#303030;"/><rect x="27.142" y="17.481" width="0.07" height="8.406" style="fill:#303030;"/><rect x="27.142" y="40.034" width="0.07" height="9.199" style="fill:#303030;"/><path d="M27.142,0.09l0,17.391l-13.563,0l13.563,-17.391Z" style="fill:#780000;"/><path d="M40.818,17.446l0.027,0.035l-0.027,0l0,-0.035Z" style="fill:#780000;"/><path d="M27.212,75.92l0,37.407l-17.844,0l0,-0.093l2.471,-37.314l15.373,0Z" style="fill:#d9d9d9;"/><path d="M45.063,113.327l-17.851,0l0,-37.407l15.373,0l2.478,37.407Z" style="fill:#f2f2f2;"/><path d="M9.368,113.32l17.844,0l0,38.74l-20.409,0l2.565,-38.833l0,0.093Z" style="fill:#ca0000;"/><path d="M45.063,113.327l2.504,37.827l0,0.813l-20.355,0l0,-38.64l17.851,0Z" style="fill:#e32525;"/><path d="M27.142,151.967l20.479,0l2.268,34.239l-22.747,0l0,-34.239Z" style="fill:#f2f2f2;"/><path d="M27.142,152.06l0,34.146l-22.567,0l0,-0.586l2.222,-33.56l20.345,0Z" style="fill:#d9d9d9;"/><path d="M53.195,236.139l1.229,18.562l-27.212,0l0,-18.562l25.983,0Z" style="fill:#f2f2f2;"/><path d="M27.212,254.701l-27.212,0l1.229,-18.562l25.983,0l0,18.562Z" style="fill:#d9d9d9;"/><rect x="27.212" y="236.139" width="25.947" height="0.058" style="fill:#d9d9d9;"/><path d="M53.16,235.603l0,0.536l-25.948,0l0,-49.933l22.677,0l3.271,49.397Z" style="fill:#e32525;"/><path d="M4.536,186.206l22.606,0l0,49.933l-25.913,0l3.307,-49.933Z" style="fill:#ca0000;"/><path d="M40.818,17.446l0,0.035l-13.676,0l0,-17.391l0.07,-0.09l13.606,17.446Z" style="fill:#950000;"/><rect x="27.212" y="35.086" width="13.633" height="4.948" style="fill:#333;"/><rect x="27.212" y="17.481" width="13.633" height="8.406" style="fill:#333;"/><rect x="27.212" y="40.034" width="19.573" height="9.199" style="fill:#4d4d4d;"/><rect x="27.212" y="25.886" width="16.306" height="9.199" style="fill:#4d4d4d;"/><rect x="13.579" y="35.086" width="13.563" height="4.948" style="fill:#1a1a1a;"/><rect x="13.579" y="17.481" width="13.563" height="8.406" style="fill:#1a1a1a;"/><rect x="7.639" y="40.034" width="19.503" height="9.199" style="fill:#333;"/><rect x="10.906" y="25.886" width="16.306" height="9.199" style="fill:#303030;"/></g></svg>