<?xml version="1.0" encoding="UTF-8" standalone="no"?><!DOCTYPE svg PUBLIC "-//W3C//DTD SVG 1.1//EN" "http://www.w3.org/Graphics/SVG/1.1/DTD/svg11.dtd"><svg width="100%" height="100%" viewBox="0 0 92 62" version="1.1" xmlns="http://www.w3.org/2000/svg" xmlns:xlink="http://www.w3.org/1999/xlink" xml:space="preserve" style="fill-rule:evenodd;clip-rule:evenodd;stroke-linejoin:round;stroke-miterlimit:1.41421;"><g><g><path d="M39.603,6.158c-0.393,-0.253 -15.797,13.116 -16.892,15.813c3.08,0.765 12.297,-10.982 16.956,-15.737c-0.014,-0.032 -0.035,-0.058 -0.064,-0.076Z" style="fill:#bfbfbf;"/><path d="M27.284,45.698c0.427,-0.189 -2.287,-20.404 -3.941,-22.801c-2.33,2.155 2.426,16.309 3.841,22.813c0.035,0.006 0.068,0.002 0.1,-0.012Z" style="fill:#bfbfbf;"/><path d="M0,16.984c-0.005,0.467 19.512,6.392 22.379,5.882c-0.993,-3.014 -15.844,-4.564 -22.349,-5.978c-0.019,0.03 -0.03,0.061 -0.03,0.096Z" style="fill:#bfbfbf;"/></g><g><path d="M22.711,21.296l0,3.203c-0.887,-0.003 -1.601,-0.719 -1.601,-1.602c0,-0.882 0.714,-1.598 1.601,-1.601Z" style="fill:#bfbfbf;"/><path d="M22.711,22.897l0,38.772l-1.258,0l0.507,-38.772l0.751,0Z" style="fill:#bfbfbf;"/><path d="M23.968,61.669l-1.257,0l0,-38.772l0.751,0l0.506,38.772Z" style="fill:#bfbfbf;"/><path d="M22.711,21.296c0.884,0 1.601,0.718 1.601,1.601c0,0.884 -0.717,1.602 -1.601,1.602l0,-3.203Z" style="fill:#bfbfbf;"/></g></g><g><g><path d="M73.63,25.089c-0.064,-0.462 -20.233,-3.495 -22.995,-2.576c1.419,2.839 16.337,2.22 22.978,2.676c0.016,-0.032 0.021,-0.065 0.017,-0.1Z" style="fill:#bfbfbf;"/><path d="M35.561,41.399c0.421,0.201 14.031,-14.99 14.78,-17.803c-3.152,-0.373 -10.827,12.435 -14.854,17.735c0.018,0.03 0.043,0.053 0.074,0.068Z" style="fill:#bfbfbf;"/><path d="M39.679,2.004c-0.358,0.3 7.81,18.989 10.059,20.838c1.648,-2.712 -6.817,-15.013 -9.966,-20.877c-0.036,0.004 -0.066,0.017 -0.093,0.039Z" style="fill:#bfbfbf;"/></g><g><path d="M50.08,21.296l0,3.203c-0.886,-0.003 -1.601,-0.719 -1.601,-1.602c0,-0.882 0.715,-1.598 1.601,-1.601Z" style="fill:#bfbfbf;"/><path d="M50.08,22.897l0,38.772l-1.257,0l0.506,-38.772l0.751,0Z" style="fill:#bfbfbf;"/><path d="M51.338,61.669l-1.258,0l0,-38.772l0.752,0l0.506,38.772Z" style="fill:#bfbfbf;"/><path d="M50.08,21.296c0.884,0 1.602,0.718 1.602,1.601c0,0.884 -0.718,1.602 -1.602,1.602l0,-3.203Z" style="fill:#bfbfbf;"/></g></g><g><g><path d="M81.139,0c-0.467,-0.004 -6.371,19.519 -5.859,22.385c3.014,-0.996 4.548,-15.848 5.955,-22.355c-0.03,-0.019 -0.062,-0.03 -0.096,-0.03Z" style="fill:#bfbfbf;"/><path d="M91.8,40.02c0.259,-0.388 -12.815,-16.043 -15.491,-17.189c-0.823,3.066 10.747,12.504 15.413,17.252c0.032,-0.013 0.058,-0.035 0.078,-0.063Z" style="fill:#bfbfbf;"/><path d="M53.408,30.275c0.244,0.397 19.915,-4.996 22.068,-6.956c-2.447,-2.021 -15.837,4.586 -22.094,6.859c-0.001,0.035 0.007,0.067 0.026,0.097Z" style="fill:#bfbfbf;"/></g><g><path d="M75.487,21.296l0,3.203c-0.887,-0.003 -1.602,-0.719 -1.602,-1.602c0,-0.882 0.715,-1.598 1.602,-1.601Z" style="fill:#bfbfbf;"/><path d="M75.487,22.897l0,38.772l-1.258,0l0.507,-38.772l0.751,0Z" style="fill:#bfbfbf;"/><path d="M76.744,61.669l-1.257,0l0,-38.772l0.751,0l0.506,38.772Z" style="fill:#bfbfbf;"/><path d="M75.487,21.296c0.884,0 1.601,0.718 1.601,1.601c0,0.884 -0.717,1.602 -1.601,1.602l0,-3.203Z" style="fill:#bfbfbf;"/></g></g></svg>